# xmcd
#
# Track frame offsets: 
#        150
#        18232
#        36372
#        57762
#
# Disc length: 969 seconds
#
# Revision: 0
# Processed by: cddbd v1.5.1PL0 Copyright (c) Steve Scherf et al.
# Submitted via: ExactAudioCopy v0.95a5
#
DISCID=2903c704
DTITLE=Wade Hayes - Don't Stop Dancin'
DYEAR=1994
DGENRE=Country
TTITLE0=Don't Stop
TTITLE1=Old Enough to Know Better
TTITLE2=Don't Make Me Come To Tulsa
TTITLE3=I'm Still Dancin' With You
EXTD=
EXTT0=
EXTT1=
EXTT2=
EXTT3=
PLAYORDER=
